{
  "accessors": [
    {
      "bufferView": 2,
      "componentType": 5126,
      "count": 52692,
      "max": [
        0.999815821647644,
        10.681574821472168,
        0.9995816946029663
      ],
      "min": [
        -0.9999377727508545,
        -1.7266224006107223e-07,
        -0.9998579621315002
      ],
      "type": "VEC3"
    },
    {
      "bufferView": 2,
      "byteOffset": 632304,
      "componentType": 5126,
      "count": 52692,
      "max": [
        0.9999995231628418,
        0.9999997615814209,
        0.9999960660934448
      ],
      "min": [
        -0.9999994039535522,
        -0.9999998807907104,
        -0.9999978542327881
      ],
      "type": "VEC3"
    },
    {
      "bufferView": 3,
      "componentType": 5126,
      "count": 52692,
      "max": [
        0.9999407529830933,
        0.9999982118606567,
        0.9999973177909851,
        1.0
      ],
      "min": [
        -0.9999996423721313,
        -0.9999982118606567,
        -0.9999975562095642,
        1.0
      ],
      "type": "VEC4"
    },
    {
      "bufferView": 1,
      "componentType": 5126,
      "count": 52692,
      "max": [
        7.623908042907715,
        0.9994468092918396
      ],
      "min": [
        0.0,
        -1.298828125
      ],
      "type": "VEC2"
    },
    {
      "bufferView": 1,
      "byteOffset": 421536,
      "componentType": 5126,
      "count": 52692,
      "max": [
        7.623908042907715,
        0.9994468092918396
      ],
      "min": [
        0.0,
        -1.298828125
      ],
      "type": "VEC2"
    },
    {
      "bufferView": 1,
      "byteOffset": 843072,
      "componentType": 5126,
      "count": 52692,
      "max": [
        7.623908042907715,
        0.9994468092918396
      ],
      "min": [
        0.0,
        -1.298828125
      ],
      "type": "VEC2"
    },
    {
      "bufferView": 0,
      "componentType": 5125,
      "count": 294024,
      "type": "SCALAR"
    }
  ],
  "asset": {
    "extras": {
      "author": "Geug (https://sketchfab.com/Geug)",
      "license": "CC-BY-4.0 (http://creativecommons.org/licenses/by/4.0/)",
      "source": "https://sketchfab.com/3d-models/column-af2eb5f7c1394457a627d16051ba91ac",
      "title": "Column"
    },
    "generator": "Sketchfab-15.30.0",
    "version": "2.0"
  },
  "bufferViews": [
    {
      "buffer": 0,
      "byteLength": 1176096,
      "name": "floatBufferViews",
      "target": 34963
    },
    {
      "buffer": 0,
      "byteLength": 1264608,
      "byteOffset": 1176096,
      "byteStride": 8,
      "name": "floatBufferViews",
      "target": 34962
    },
    {
      "buffer": 0,
      "byteLength": 1264608,
      "byteOffset": 2440704,
      "byteStride": 12,
      "name": "floatBufferViews",
      "target": 34962
    },
    {
      "buffer": 0,
      "byteLength": 843072,
      "byteOffset": 3705312,
      "byteStride": 16,
      "name": "floatBufferViews",
      "target": 34962
    }
  ],
  "buffers": [
    {
      "byteLength": 4548384,
      "uri": "scene.bin"
    }
  ],
  "images": [
    {
      "uri": "textures/Rough_Concrete_Wall_baseColor.jpeg"
    },
    {
      "uri": "textures/Rough_Concrete_Wall_metallicRoughness.png"
    },
    {
      "uri": "textures/Rough_Concrete_Wall_normal.png"
    }
  ],
  "materials": [
    {
      "doubleSided": true,
      "name": "Rough_Concrete_Wall",
      "normalTexture": {
        "index": 2
      },
      "pbrMetallicRoughness": {
        "baseColorTexture": {
          "index": 0
        },
        "metallicFactor": 0.0,
        "metallicRoughnessTexture": {
          "index": 1
        }
      }
    }
  ],
  "meshes": [
    {
      "name": "geo1_Rough_Concrete_Wall_0",
      "primitives": [
        {
          "attributes": {
            "NORMAL": 1,
            "POSITION": 0,
            "TANGENT": 2,
            "TEXCOORD_0": 3,
            "TEXCOORD_1": 4,
            "TEXCOORD_2": 5
          },
          "indices": 6,
          "material": 0,
          "mode": 4
        }
      ]
    }
  ],
  "nodes": [
    {
      "children": [
        1
      ],
      "matrix": [
        1.0,
        0.0,
        0.0,
        0.0,
        0.0,
        2.220446049250313e-16,
        -1.0,
        0.0,
        0.0,
        1.0,
        2.220446049250313e-16,
        0.0,
        0.0,
        0.0,
        0.0,
        1.0
      ],
      "name": "Sketchfab_model"
    },
    {
      "children": [
        2
      ],
      "matrix": [
        0.009999999776482582,
        0.0,
        0.0,
        0.0,
        0.0,
        0.0,
        0.009999999776482582,
        0.0,
        0.0,
        -0.009999999776482582,
        0.0,
        0.0,
        0.0,
        0.0,
        0.0,
        1.0
      ],
      "name": "mesh.fbx"
    },
    {
      "children": [
        3
      ],
      "name": "RootNode"
    },
    {
      "children": [
        4
      ],
      "name": "geo1"
    },
    {
      "mesh": 0,
      "name": "geo1_Rough_Concrete_Wall_0"
    }
  ],
  "samplers": [
    {
      "magFilter": 9729,
      "minFilter": 9987,
      "wrapS": 10497,
      "wrapT": 10497
    }
  ],
  "scene": 0,
  "scenes": [
    {
      "name": "Sketchfab_Scene",
      "nodes": [
        0
      ]
    }
  ],
  "textures": [
    {
      "sampler": 0,
      "source": 0
    },
    {
      "sampler": 0,
      "source": 1
    },
    {
      "sampler": 0,
      "source": 2
    }
  ]
}
